<svg xmlns="http://www.w3.org/2000/svg" xmlns:xlink="http://www.w3.org/1999/xlink" width="1000" zoomAndPan="magnify" viewBox="0 0 750 262.499992" height="350" preserveAspectRatio="xMidYMid meet" version="1.0"><defs><g/><clipPath id="6b93a7b0f3"><path d="M 577.492188 133 L 647 133 L 647 200 L 577.492188 200 Z M 577.492188 133 " clip-rule="nonzero"/></clipPath></defs><g fill="#64748b" fill-opacity="1"><g transform="translate(88.108166, 168.660339)"><g><path d="M 9.90625 0 L 9.90625 -82.125 L 65.46875 -82.125 L 65.46875 -69.671875 L 24.8125 -69.671875 L 24.8125 -47.875 L 62.90625 -47.875 L 62.90625 -35.421875 L 24.8125 -35.421875 L 24.8125 -12.46875 L 65.46875 -12.46875 L 65.46875 0 Z M 9.90625 0 "/></g></g></g><g fill="#64748b" fill-opacity="1"><g transform="translate(160.688631, 168.660339)"><g><path d="M 30.984375 1.171875 C 25.785156 1.171875 21.242188 -0.0703125 17.359375 -2.5625 C 13.472656 -5.050781 10.460938 -8.546875 8.328125 -13.046875 C 6.191406 -17.554688 5.125 -22.800781 5.125 -28.78125 C 5.125 -34.832031 6.191406 -40.09375 8.328125 -44.5625 C 10.460938 -49.03125 13.453125 -52.503906 17.296875 -54.984375 C 21.140625 -57.472656 25.625 -58.71875 30.75 -58.71875 C 35.488281 -58.71875 39.585938 -57.585938 43.046875 -55.328125 C 46.503906 -53.078125 48.929688 -50.128906 50.328125 -46.484375 L 49.625 -46.484375 L 49.625 -82.125 L 64.78125 -82.125 L 64.78125 0 L 50.5625 0 L 50.5625 -12 L 51.03125 -12 C 49.550781 -7.882812 47.046875 -4.660156 43.515625 -2.328125 C 39.984375 0.00390625 35.804688 1.171875 30.984375 1.171875 Z M 35.0625 -10.375 C 39.644531 -10.375 43.253906 -11.960938 45.890625 -15.140625 C 48.535156 -18.328125 49.859375 -22.875 49.859375 -28.78125 C 49.859375 -34.757812 48.535156 -39.300781 45.890625 -42.40625 C 43.253906 -45.507812 39.644531 -47.0625 35.0625 -47.0625 C 30.5625 -47.0625 26.96875 -45.507812 24.28125 -42.40625 C 21.601562 -39.300781 20.265625 -34.757812 20.265625 -28.78125 C 20.265625 -22.875 21.601562 -18.328125 24.28125 -15.140625 C 26.96875 -11.960938 30.5625 -10.375 35.0625 -10.375 Z M 35.0625 -10.375 "/></g></g></g><g fill="#64748b" fill-opacity="1"><g transform="translate(233.735098, 168.660339)"><g><path d="M 29.59375 1.171875 C 24.851562 1.171875 20.867188 0.28125 17.640625 -1.5 C 14.421875 -3.289062 12.015625 -5.953125 10.421875 -9.484375 C 8.828125 -13.023438 8.03125 -17.472656 8.03125 -22.828125 L 8.03125 -57.546875 L 23.1875 -57.546875 L 23.1875 -22.953125 C 23.1875 -20.390625 23.550781 -18.191406 24.28125 -16.359375 C 25.019531 -14.535156 26.1875 -13.175781 27.78125 -12.28125 C 29.375 -11.394531 31.375 -10.953125 33.78125 -10.953125 C 36.425781 -10.953125 38.773438 -11.570312 40.828125 -12.8125 C 42.890625 -14.050781 44.503906 -15.773438 45.671875 -17.984375 C 46.835938 -20.203125 47.421875 -22.710938 47.421875 -25.515625 L 47.421875 -57.546875 L 62.5625 -57.546875 L 62.5625 0 L 48.234375 0 L 48.234375 -12 L 49.15625 -12 C 47.375 -7.800781 44.8125 -4.554688 41.46875 -2.265625 C 38.132812 0.0234375 34.175781 1.171875 29.59375 1.171875 Z M 29.59375 1.171875 "/></g></g></g><g fill="#64748b" fill-opacity="1"><g transform="translate(304.568053, 168.660339)"><g><path d="M 29.703125 0 L 29.703125 -69.203125 L 1.625 -69.203125 L 1.625 -82.125 L 73.15625 -82.125 L 73.15625 -69.203125 L 45.078125 -69.203125 L 45.078125 0 Z M 29.703125 0 "/></g></g></g><g fill="#64748b" fill-opacity="1"><g transform="translate(379.245545, 168.660339)"><g><path d="M 8.265625 0 L 8.265625 -57.546875 L 22.375 -57.546875 L 22.375 -43.578125 L 21.90625 -43.578125 C 23.070312 -48.078125 25.265625 -51.609375 28.484375 -54.171875 C 31.703125 -56.734375 35.878906 -58.171875 41.015625 -58.484375 L 46.484375 -58.953125 L 47.53125 -45.671875 L 38.09375 -44.859375 C 33.351562 -44.390625 29.738281 -42.875 27.25 -40.3125 C 24.769531 -37.75 23.53125 -34.332031 23.53125 -30.0625 L 23.53125 0 Z M 8.265625 0 "/></g></g></g><g fill="#64748b" fill-opacity="1"><g transform="translate(428.176214, 168.660339)"><g><path d="M 27.84375 1.171875 C 23.644531 1.171875 19.894531 0.375 16.59375 -1.21875 C 13.300781 -2.8125 10.703125 -4.988281 8.796875 -7.75 C 6.890625 -10.507812 5.9375 -13.597656 5.9375 -17.015625 C 5.9375 -21.285156 7.101562 -24.679688 9.4375 -27.203125 C 11.769531 -29.722656 15.457031 -31.566406 20.5 -32.734375 C 25.550781 -33.898438 32.15625 -34.484375 40.3125 -34.484375 L 47.1875 -34.484375 L 47.1875 -25.625 L 40.78125 -25.625 C 37.125 -25.625 34.035156 -25.488281 31.515625 -25.21875 C 28.992188 -24.945312 26.9375 -24.519531 25.34375 -23.9375 C 23.75 -23.351562 22.582031 -22.554688 21.84375 -21.546875 C 21.101562 -20.535156 20.734375 -19.296875 20.734375 -17.828125 C 20.734375 -15.179688 21.664062 -13.117188 23.53125 -11.640625 C 25.394531 -10.171875 27.957031 -9.4375 31.21875 -9.4375 C 33.863281 -9.4375 36.234375 -10.054688 38.328125 -11.296875 C 40.421875 -12.546875 42.109375 -14.238281 43.390625 -16.375 C 44.671875 -18.507812 45.3125 -20.894531 45.3125 -23.53125 L 45.3125 -36.578125 C 45.3125 -40.460938 44.320312 -43.21875 42.34375 -44.84375 C 40.363281 -46.476562 37.203125 -47.296875 32.859375 -47.296875 C 29.671875 -47.296875 26.382812 -46.828125 23 -45.890625 C 19.625 -44.960938 16.148438 -43.453125 12.578125 -41.359375 L 8.390625 -51.71875 C 10.640625 -53.195312 13.203125 -54.441406 16.078125 -55.453125 C 18.953125 -56.460938 21.960938 -57.257812 25.109375 -57.84375 C 28.253906 -58.425781 31.300781 -58.71875 34.25 -58.71875 C 39.757812 -58.71875 44.414062 -57.863281 48.21875 -56.15625 C 52.03125 -54.445312 54.90625 -51.84375 56.84375 -48.34375 C 58.789062 -44.851562 59.765625 -40.3125 59.765625 -34.71875 L 59.765625 0 L 46.359375 0 L 46.359375 -12 L 46.71875 -12 C 45.9375 -9.4375 44.671875 -7.164062 42.921875 -5.1875 C 41.179688 -3.207031 39.046875 -1.648438 36.515625 -0.515625 C 33.992188 0.609375 31.101562 1.171875 27.84375 1.171875 Z M 27.84375 1.171875 "/></g></g></g><g fill="#64748b" fill-opacity="1"><g transform="translate(495.980118, 168.660339)"><g><path d="M 35.1875 1.171875 C 29.125 1.171875 23.835938 -0.0703125 19.328125 -2.5625 C 14.828125 -5.050781 11.332031 -8.546875 8.84375 -13.046875 C 6.363281 -17.554688 5.125 -22.835938 5.125 -28.890625 C 5.125 -35.023438 6.363281 -40.328125 8.84375 -44.796875 C 11.332031 -49.265625 14.828125 -52.703125 19.328125 -55.109375 C 23.835938 -57.515625 29.160156 -58.71875 35.296875 -58.71875 C 39.179688 -58.71875 42.96875 -58.113281 46.65625 -56.90625 C 50.34375 -55.707031 53.351562 -54.054688 55.6875 -51.953125 L 51.265625 -41.125 C 49.160156 -42.90625 46.828125 -44.257812 44.265625 -45.1875 C 41.703125 -46.125 39.21875 -46.59375 36.8125 -46.59375 C 31.613281 -46.59375 27.59375 -45.054688 24.75 -41.984375 C 21.914062 -38.921875 20.5 -34.554688 20.5 -28.890625 C 20.5 -23.222656 21.914062 -18.816406 24.75 -15.671875 C 27.59375 -12.523438 31.578125 -10.953125 36.703125 -10.953125 C 39.109375 -10.953125 41.609375 -11.414062 44.203125 -12.34375 C 46.804688 -13.28125 49.117188 -14.601562 51.140625 -16.3125 L 55.6875 -5.46875 C 53.28125 -3.457031 50.25 -1.847656 46.59375 -0.640625 C 42.945312 0.566406 39.144531 1.171875 35.1875 1.171875 Z M 35.1875 1.171875 "/></g></g></g><g fill="#64748b" fill-opacity="1"><g transform="translate(553.531901, 168.660339)"><g><path d="M 8.265625 0 L 8.265625 -82.125 L 23.421875 -82.125 L 23.421875 -32.859375 L 23.765625 -32.859375 L 46.25 -57.546875 L 64.3125 -57.546875 L 36 -26.90625 L 36.109375 -32.625 L 66.171875 0 L 47.875 0 L 23.765625 -25.390625 L 23.421875 -25.390625 L 23.421875 0 Z M 8.265625 0 "/></g></g></g><g clip-path="url(#6b93a7b0f3)"><path fill="#64748b" d="M 646.074219 133.242188 C 645.839844 142.261719 643.941406 151.277344 640.378906 159.347656 C 636.820312 167.414062 631.601562 175.007812 625.191406 181.179688 C 618.785156 187.347656 611.191406 192.09375 603.121094 195.179688 C 595.054688 198.265625 586.273438 199.925781 577.492188 199.6875 C 586.273438 199.453125 594.816406 197.554688 602.648438 193.992188 C 610.480469 190.433594 617.597656 185.449219 623.53125 179.28125 C 629.464844 173.109375 633.972656 165.753906 637.058594 157.921875 C 640.144531 150.09375 641.566406 141.550781 641.328125 133.242188 Z M 646.074219 133.242188 " fill-opacity="1" fill-rule="nonzero"/></g><path fill="#64748b" d="M 643.703125 133.71875 L 658.890625 141.550781 L 651.296875 128.496094 L 643.703125 115.445312 L 636.109375 128.496094 L 628.753906 141.550781 Z M 643.703125 133.71875 " fill-opacity="1" fill-rule="nonzero"/></svg>